<svg width="52" height="52" viewBox="0 0 52 52" fill="none" xmlns="http://www.w3.org/2000/svg">
<path d="M26 29.0333L32.2834 35.3166C32.6806 35.7138 33.1862 35.9124 33.8 35.9124C34.4139 35.9124 34.9195 35.7138 35.3167 35.3166C35.7139 34.9194 35.9125 34.4138 35.9125 33.7999C35.9125 33.186 35.7139 32.6805 35.3167 32.2833L29.0334 25.9999L35.3167 19.7166C35.7139 19.3194 35.9125 18.8138 35.9125 18.1999C35.9125 17.586 35.7139 17.0805 35.3167 16.6833C34.9195 16.286 34.4139 16.0874 33.8 16.0874C33.1862 16.0874 32.6806 16.286 32.2834 16.6833L26 22.9666L19.7167 16.6833C19.3195 16.286 18.8139 16.0874 18.2 16.0874C17.5862 16.0874 17.0806 16.286 16.6834 16.6833C16.2862 17.0805 16.0875 17.586 16.0875 18.1999C16.0875 18.8138 16.2862 19.3194 16.6834 19.7166L22.9667 25.9999L16.6834 32.2833C16.2862 32.6805 16.0875 33.186 16.0875 33.7999C16.0875 34.4138 16.2862 34.9194 16.6834 35.3166C17.0806 35.7138 17.5862 35.9124 18.2 35.9124C18.8139 35.9124 19.3195 35.7138 19.7167 35.3166L26 29.0333ZM26 47.6666C23.0028 47.6666 20.1862 47.0978 17.55 45.9603C14.9139 44.8228 12.6209 43.2791 10.6709 41.3291C8.72087 39.3791 7.17712 37.086 6.03962 34.4499C4.90212 31.8138 4.33337 28.9971 4.33337 25.9999C4.33337 23.0027 4.90212 20.186 6.03962 17.5499C7.17712 14.9138 8.72087 12.6208 10.6709 10.6708C12.6209 8.72075 14.9139 7.177 17.55 6.0395C20.1862 4.902 23.0028 4.33325 26 4.33325C28.9973 4.33325 31.8139 4.902 34.45 6.0395C37.0862 7.177 39.3792 8.72075 41.3292 10.6708C43.2792 12.6208 44.823 14.9138 45.9605 17.5499C47.098 20.186 47.6667 23.0027 47.6667 25.9999C47.6667 28.9971 47.098 31.8138 45.9605 34.4499C44.823 37.086 43.2792 39.3791 41.3292 41.3291C39.3792 43.2791 37.0862 44.8228 34.45 45.9603C31.8139 47.0978 28.9973 47.6666 26 47.6666ZM26 43.3333C30.8389 43.3333 34.9375 41.6541 38.2959 38.2958C41.6542 34.9374 43.3334 30.8388 43.3334 25.9999C43.3334 21.161 41.6542 17.0624 38.2959 13.7041C34.9375 10.3458 30.8389 8.66659 26 8.66659C21.1612 8.66659 17.0625 10.3458 13.7042 13.7041C10.3459 17.0624 8.66671 21.161 8.66671 25.9999C8.66671 30.8388 10.3459 34.9374 13.7042 38.2958C17.0625 41.6541 21.1612 43.3333 26 43.3333Z" fill="white"/>
</svg>
